PathFileType	4	(X/Y/Z)	../Python\running\Running03\task.trc
DataRate	CameraRate	NumFrames	NumMarkers	Units	OrigDataRate	OrigDataStartFrame	OrigNumFrames
200.000000	200.000000	5	30	mm	200.000000	24	198
Frame#	Time	C7			RBAK			CLAV			STRN			RASI			RPSI			LASI			PE01			RTH2			RTH3			RD5M			RTOE			LTH2			LTH3			LTB2			LTB3			LHEE			LTOE			LD5M			RHEE			RTH1			RTB2			LPSI			T10			RTB1			PE03			RTB3			PE02			LTH1			LTB1			
		X1	Y1	Z1	X2	Y2	Z2	X3	Y3	Z3	X4	Y4	Z4	X5	Y5	Z5	X6	Y6	Z6	X7	Y7	Z7	X8	Y8	Z8	X9	Y9	Z9	X10	Y10	Z10	X11	Y11	Z11	X12	Y12	Z12	X13	Y13	Z13	X14	Y14	Z14	X15	Y15	Z15	X16	Y16	Z16	X17	Y17	Z17	X18	Y18	Z18	X19	Y19	Z19	X20	Y20	Z20	X21	Y21	Z21	X22	Y22	Z22	X23	Y23	Z23	X24	Y24	Z24	X25	Y25	Z25	X26	Y26	Z26	X27	Y27	Z27	X28	Y28	Z28	X29	Y29	Z29	X30	Y30	Z30	

25	0.12	-943.059204101563	1314.631713867188	107.2916107177735	-958.778686523438	1244.730834960938	243.8213958740236	-835.9165039062505	1209.862182617188	87.14892578125003	-809.189819335938	1020.352416992188	105.8367538452149	-867.9934082031255	818.6242065429692	261.5881958007814	-1053.334594726563	894.2683715820317	211.9283447265626	-868.2407836914067	840.1535034179692	36.5896453857422	-1043.87109375	926.6403808593755	172.1444244384766	-988.7369995117192	453.6161193847659	273.275115966797	-951.381713867188	502.3572387695315	278.6879882812501	-1416.695556640625	215.5720520019532	196.7980957031251	-1394.256469726563	176.8220825195313	160.0962829589844	-851.1719360351567	534.1339111328127	5.104448318481447	-798.0515747070317	593.042419433594	-5.546907901763918	-857.044311523438	205.9806365966798	23.3913803100586	-812.9504394531255	227.9093475341798	26.66093063354494	-922.4315795898442	32.94330215454103	80.15776062011722	-737.6000976562502	30.75176239013673	93.18271636962893	-768.6953125000005	13.8905143737793	35.32986068725587	-1401.55615234375	344.2641601562501	100.2323455810547	-991.3474121093755	532.0425415039065	288.8154296875001	-1201.23095703125	363.8961791992189	224.6754455566407	-1059.124389648438	895.6835327148442	127.3770904541016	-1019.841491699219	1036.210083007813	169.5789337158204	-1146.059936523438	331.5329589843751	230.6159820556642	-1071.930908203125	876.385620117188	138.0386810302735	-1221.578735351563	319.1419067382814	209.1382141113282	-1072.413940429688	868.7188110351567	187.9752807617188	-849.726684570313	593.1186523437502	-10.16615867614746	-838.1065063476567	282.3035583496095	10.07974815368653	
26	0.125	-926.4948120117192	1312.155395507813	106.3354187011719	-943.7179565429692	1242.333129882813	242.8296356201173	-819.2299194335942	1206.105224609375	87.44598388671878	-792.8317871093755	1015.823425292969	106.7129592895508	-851.8920898437505	815.590209960938	260.694549560547	-1038.078369140625	889.398071289063	213.1662750244142	-853.213989257813	837.959838867188	35.19282150268556	-1029.271850585938	923.0302734375005	173.8708496093751	-964.2487792968755	449.670837402344	274.4029846191407	-928.028930664063	499.233337402344	279.7127685546876	-1388.724853515625	215.3614654541017	198.9234161376954	-1366.37109375	176.5422515869141	162.3098602294922	-838.2070922851567	531.9312133789065	4.512009143829347	-784.310424804688	590.1397705078127	-6.112715244293216	-850.639526367188	205.6421966552736	22.79590225219727	-806.223266601563	226.0410919189454	27.10205650329591	-922.754760742188	33.32057952880861	80.07662200927737	-737.9236450195315	31.08786964416505	93.32190704345706	-769.0395507812505	14.25628566741944	35.3791961669922	-1375.99560546875	343.9026489257814	101.9093856811524	-968.6713256835942	528.0543212890627	289.5349731445314	-1174.188598632813	361.6021728515626	226.3440551757814	-1044.074829101563	892.804077148438	128.5912780761719	-1003.899536132813	1033.449951171875	169.4089813232422	-1118.918823242188	328.437957763672	231.6021575927736	-1056.998901367188	872.920776367188	139.3236541748047	-1194.93603515625	317.1251831054689	210.5875549316407	-1057.015991210938	864.553100585938	189.1610565185547	-835.8808593750005	590.884948730469	-10.71687030792237	-829.1177368164067	281.3244628906251	9.821150779724125	
27	0.13	-909.9082031250005	1309.827880859375	105.4674301147462	-928.7136230468755	1240.051879882813	241.8696594238282	-802.5404663085942	1202.46240234375	87.85744476318362	-776.4885864257817	1011.425354003907	107.6788177490235	-835.9006347656255	812.6119995117192	259.7958374023439	-1022.731811523438	884.967651367188	214.5535736083986	-838.2968750000005	835.963745117188	33.87698364257814	-1014.496704101563	919.8042602539067	175.710922241211	-939.5290527343755	446.1511840820315	275.4115600585939	-904.5641479492192	496.5577697753909	280.709686279297	-1360.009765625	214.4123382568361	201.2049407958986	-1337.695922851563	175.6529693603516	164.5443267822266	-825.898803710938	529.6777954101565	3.943453788757326	-771.1207885742192	587.026550292969	-6.785588264465336	-844.4455566406255	205.1159973144532	22.11814117431641	-799.8540649414067	224.1296844482423	27.49271774291994	-923.0281372070317	33.86865997314455	79.90091705322268	-738.209411621094	31.35177803039552	93.37634277343753	-769.3505859375005	14.51395797729493	35.40887451171876	-1350.109741210938	342.956756591797	103.9585571289063	-945.9170532226567	524.4084472656252	290.1601562500001	-1146.71630859375	359.0964965820314	228.1448211669923	-1029.019409179688	890.3368530273442	129.8998260498047	-987.9853515625005	1030.863525390625	169.2391815185547	-1091.28173828125	325.3209228515626	232.5874938964845	-1042.044921875	869.8942871093755	140.7363586425782	-1167.771240234375	314.8933410644532	212.1196594238282	-1041.578857421875	860.860229492188	190.4841308593751	-822.5615844726567	588.5798950195315	-11.31091499328614	-820.561157226563	280.1402587890626	9.458638191223148	
28	0.135	-893.3040161132817	1307.674682617188	104.6935119628907	-913.7587280273442	1237.919921875	240.9402313232423	-785.853149414063	1198.987548828125	88.38902282714847	-760.1613769531252	1007.226623535157	108.7327957153321	-820.0037231445317	809.740356445313	258.9101867675782	-1007.274169921875	881.090209960938	216.0466156005861	-823.4700317382817	834.160522460938	32.6621780395508	-999.502319335938	917.0090942382817	177.5928039550782	-914.573120117188	443.0991516113284	276.2955322265626	-880.9897460937505	494.3733520507815	281.6781311035157	-1330.596435546875	212.7237548828126	203.6264190673829	-1308.260498046875	174.1573944091797	166.7855224609376	-814.2203979492192	527.3801879882815	3.398033618927004	-758.4820556640627	583.739440917969	-7.527141571044925	-838.559204101563	204.3462219238282	21.41690635681153	-793.8911132812505	222.1319122314454	27.82985877990724	-923.2351684570317	34.53469085693361	79.66107940673831	-738.4495849609377	31.52534866333009	93.36900329589847	-769.6140136718755	14.65793609619141	35.40962219238283	-1323.936645507813	341.4015502929689	106.3569412231446	-923.086547851563	521.1418457031252	290.694305419922	-1118.853393554688	356.4227294921876	230.0494232177736	-1013.939697265625	888.2942504882817	131.2599792480469	-972.0938110351567	1028.480834960938	169.0605926513672	-1063.202514648438	322.244598388672	233.5835266113282	-1027.050415039063	867.3412475585942	142.2380371093751	-1140.121704101563	312.4807739257814	213.7190856933595	-1026.076171875	857.7001342773442	191.9092407226563	-809.771118164063	586.2136230468752	-11.9325590133667	-812.5223999023442	278.7121582031251	9.011703491210941	
29	0.14	-876.6880493164067	1305.71923828125	104.0182113647462	-898.8474121093755	1235.966674804688	240.0386352539064	-769.1725463867192	1195.732055664063	89.04507446289065	-743.8502197265627	1003.292724609375	109.8716506958008	-804.1840209960942	807.0264282226567	258.0553283691407	-991.6970825195317	877.8527832031255	217.5881652832032	-808.7116088867192	832.5366210937505	31.5627956390381	-984.2695922851567	914.6738891601567	179.4383697509766	-889.3864746093755	440.5477294921877	277.0514221191407	-857.3092651367192	492.7079772949221	282.6161499023439	-1300.53515625	210.3054199218751	206.1698303222657	-1278.10205078125	172.0648040771485	169.024398803711	-803.1359863281255	525.0527343750002	2.875388145446778	-746.383483886719	580.3223876953127	-8.304904937744144	-833.0727539062505	203.3248291015626	20.74638748168946	-788.3769531250005	220.034637451172	28.10814476013185	-923.374145507813	35.278865814209	79.3911056518555	-738.6503906250002	31.6094436645508	93.32021331787112	-769.832397460938	14.69842243194581	35.37857818603517	-1297.509521484375	339.2127075195314	109.0723190307618	-900.178344726563	518.2857666015627	291.1421813964845	-1090.643310546875	353.627899169922	232.0272827148439	-998.8192749023442	886.6714477539067	132.6226348876954	-956.217895507813	1026.326293945313	168.8638610839844	-1034.738891601563	319.2704467773439	234.5997467041017	-1012.000671386719	865.276977539063	143.7766265869141	-1112.030517578125	309.9243469238282	215.3716278076173	-1010.492370605469	855.1060180664067	193.3856964111329	-797.5025024414067	583.803161621094	-12.56573295593262	-805.0787963867192	277.0437011718751	8.507143020629886	
